<?xml version="1.0" encoding="UTF-8" standalone="no"?>
<svg width="110px" height="110px" viewBox="0 0 110 110" version="1.1" xmlns="http://www.w3.org/2000/svg" xmlns:xlink="http://www.w3.org/1999/xlink">
    <!-- Generator: Sketch 50.2 (55047) - http://www.bohemiancoding.com/sketch -->
    <title>accept</title>
    <desc>Created with Sketch.</desc>
    <defs></defs>
    <g id="Page-1" stroke="none" stroke-width="1" fill="none" fill-rule="evenodd">
        <g id="Forgot_password_Popup" transform="translate(-746.000000, -452.000000)" fill-rule="nonzero">
            <g id="accept" transform="translate(746.000000, 452.000000)">
                <circle id="Oval" fill="#EAEAED" cx="55" cy="55" r="55"></circle>
                <path d="M109,63.0350754 C105.494987,86.7488953 86.7488953,105.494987 63.0350754,109 L32,77.9649246 L77.9649246,32 L109,63.0350754 Z" id="Shape" fill="#D9D9DD"></path>
                <path d="M23,55.5012798 C23,37.5521879 37.5521879,23 55.5012798,23 C73.4503718,23 88,37.5521879 88,55.5012798 C88,73.4503718 73.4503718,88 55.5012798,88 C37.5521879,88 23,73.4503718 23,55.5012798 Z" id="Shape" fill="#5ECDF0"></path>
                <g id="Group" transform="translate(35.000000, 42.000000)" fill="#F3F3F3">
                    <path d="M9.75970833,26.157303 L9.75970833,26.1547576 C8.17416146,24.2180909 8.47226563,21.3457576 10.421901,19.7682121 L33.4192708,1.18490909 C35.3689063,-0.390090909 38.260474,-0.093969697 39.8485833,1.84269697 C41.4366927,3.78190909 41.1385885,6.65424242 39.1889531,8.232 L16.1888073,26.815303 C14.2393854,28.3900909 11.3480313,28.0939697 9.75970833,26.157303 Z" id="Shape"></path>
                    <path d="M1.81083333,9.34033333 L1.81083333,9.33778788 C3.76303125,7.76278788 6.65459896,8.05890909 8.24014583,9.99557576 L16.7115573,20.3394545 C18.2971042,22.2761212 17.999,25.1484545 16.0493646,26.726 C14.0971667,28.301 11.205599,28.0048788 9.62005208,26.0682121 L1.14864062,15.7270909 C-0.43690625,13.7904242 -0.138802083,10.9155455 1.81083333,9.34033333 Z" id="Shape"></path>
                </g>
            </g>
        </g>
    </g>
</svg>