<?xml version="1.0" encoding="UTF-8" standalone="no"?>
<svg width="274px" height="256px" viewBox="0 0 274 256" version="1.1" xmlns="http://www.w3.org/2000/svg" xmlns:xlink="http://www.w3.org/1999/xlink">
    <!-- Generator: Sketch 50.2 (55047) - http://www.bohemiancoding.com/sketch -->
    <title>vector</title>
    <desc>Created with Sketch.</desc>
    <defs></defs>
    <g id="Page-1" stroke="none" stroke-width="1" fill="none" fill-rule="evenodd">
        <g id="dashboard_no_data" transform="translate(-643.000000, -249.000000)">
            <g id="vector" transform="translate(643.000000, 249.000000)">
                <polyline id="Fill-4" fill="#CA8E41" points="32.4428108 166 60 101.699714 60 89 27 166 32.4428108 166"></polyline>
                <polyline id="Fill-5" fill="#A97539" points="56.4513657 100.922053 60 101.699929 60 89 55 102 56.4513657 100.922053"></polyline>
                <path d="M215.458758,40.6844665 C223.641518,49.4990284 223.129329,63.2767654 214.314,71.4587583 C205.500205,79.6407512 191.723235,79.128562 183.540475,70.3147668 C175.358482,61.5002048 175.870671,47.7224679 184.684466,39.540475 C193.498262,31.358482 207.276765,31.8699045 215.458758,40.6844665 Z M180.241915,23.9133362 L169.429968,33.9500982 L173.154075,39.6301848 C173.914691,40.790278 173.987532,42.2524709 173.408636,43.5130085 L173.389467,43.5536463 C172.812871,44.8149506 171.657378,45.7151155 170.281061,45.8960686 L163.54746,46.782432 L163,61.5239741 L169.649259,62.9071917 C171.007174,63.1901226 172.092892,64.1730965 172.574412,65.4742718 L172.589747,65.5156764 C173.074333,66.816085 172.89338,68.2690769 172.048421,69.3693636 L167.913336,74.7573183 L177.950098,85.5692649 L183.630185,81.8451584 C184.790278,81.0845421 186.253238,81.0117008 187.513008,81.5913641 L187.553646,81.6097661 C188.815717,82.1871291 189.715115,83.3426219 189.896069,84.718172 L190.782432,91.4517735 L205.523974,92 L206.907192,85.350741 C207.189356,83.9920594 208.173097,82.9063409 209.474272,82.424055 L209.516443,82.4087199 C210.816085,81.9249005 212.26831,82.1058536 213.369364,82.9500457 L218.757318,87.085897 L229.568498,77.049135 L225.845158,71.3690485 C225.084542,70.2089552 225.012468,68.7467623 225.590597,67.4862248 L225.609766,67.445587 C226.187129,66.1842827 227.342622,65.2841178 228.718172,65.1031647 L235.451774,64.2168013 L236,49.4752592 L229.350741,48.0920416 C227.992059,47.8091107 226.906341,46.8261367 226.424055,45.5249614 L226.40872,45.4835569 C225.9249,44.1831483 226.105854,42.7301564 226.950812,41.6298697 L231.085897,36.241915 L221.049135,25.4307351 L215.368282,29.1540748 C214.208955,29.9139244 212.746762,29.9875324 211.486225,29.4078692 L211.445587,29.3894672 C210.184283,28.8121042 209.284118,27.6566114 209.103165,26.2810613 L208.216801,19.5474597 L193.476026,19 L192.092042,25.649259 C191.809111,27.0071738 190.826137,28.0928923 189.524961,28.5744115 L189.483557,28.5897466 C188.183148,29.0743328 186.730156,28.8933797 185.62987,28.0484208 L180.241915,23.9133362 Z" id="Fill-6" fill="#2B5467"></path>
                <path d="M264.714116,48.803495 C268.412777,52.7876605 268.181317,59.0157632 264.197057,62.7143367 C260.212796,66.4129101 253.984546,66.1814551 250.285884,62.1972896 C246.586438,58.2131241 246.817899,51.9842368 250.802159,48.2856633 C254.787204,44.5870899 261.015454,44.8185449 264.714116,48.803495 Z M248.794337,41.2219686 L243.906988,45.7584879 L245.589981,48.3264622 C245.933641,48.8505706 245.966595,49.5119829 245.705319,50.0815977 L245.696688,50.0996434 C245.435412,50.6700428 244.912861,51.0772468 244.291448,51.1588445 L241.247153,51.5597718 L241,58.2233238 L244.005849,58.8486448 C244.619416,58.9765335 245.110583,59.421398 245.32792,60.0090585 L245.334982,60.0278887 C245.553889,60.6155492 245.472289,61.2722539 245.090967,61.7696862 L243.221237,64.2058488 L247.757864,69.0930813 L250.325899,67.4093438 C250.85002,67.0656919 251.511448,67.0327389 252.081077,67.2947932 L252.099123,67.3034237 C252.67032,67.5646933 253.076749,68.0864479 253.158349,68.7086305 L253.559286,71.7528531 L260.222996,72 L260.849117,68.9942225 C260.976224,68.3798859 261.421099,67.889515 262.008773,67.671398 L262.027604,67.6643367 C262.616063,67.4454351 263.271999,67.5278174 263.769443,67.9099144 L266.205663,69.778816 L271.093012,65.2415121 L269.410019,62.6743224 C269.065575,62.1494294 269.032621,61.4880171 269.294681,60.9184023 L269.303312,60.9003566 C269.563803,60.3299572 270.086355,59.9227532 270.708552,59.8411555 L273.752063,59.4410128 L274,52.7766762 L270.994151,52.1513552 C270.3798,52.0234665 269.889417,51.5793866 269.67208,50.9909415 L269.664234,50.9721113 C269.446111,50.3844508 269.527711,49.7277461 269.909033,49.2303138 L271.778763,46.7949358 L269.51045,44.3509272 L267.241351,41.9077033 L264.674101,43.5906562 C264.14998,43.9343081 263.488552,43.9672611 262.918139,43.7052068 L262.900093,43.6973609 C262.32968,43.4360913 261.923251,42.9135521 261.840866,42.2921541 L261.43993,39.2479315 L254.776219,39 L254.150883,42.0057775 C254.022992,42.6201141 253.578901,43.1112696 252.990442,43.328602 L252.971611,43.3356633 C252.383937,43.5545649 251.728001,43.4729672 251.229772,43.0908702 L248.794337,41.2219686 Z" id="Fill-7" fill="#F96E10"></path>
                <path d="M155.774484,13.9611257 C161.042963,19.6361329 160.713256,28.5072253 155.0391,33.7750299 C149.364184,39.0428345 140.493235,38.7131219 135.224756,33.0381146 C129.957037,27.3638671 130.286744,18.4927747 135.96166,13.2249701 C141.636575,7.95640578 150.507524,8.28611838 155.774484,13.9611257 Z M133.101411,3.16341771 L126.141093,9.62548088 L128.537928,13.2819481 C129.027171,14.0294992 129.074272,14.9707755 128.701262,15.7829018 L128.689867,15.8087318 C128.317617,16.620858 127.573876,17.200514 126.688073,17.3167491 L122.353258,17.8872887 L122,27.3783015 L126.281636,28.2694372 C127.156044,28.451007 127.854963,29.0846022 128.164918,29.9217987 L128.174794,29.9483885 C128.487029,30.785585 128.370036,31.7207836 127.826095,32.4295898 L125.164126,35.8984095 L128.394346,39.3793845 L131.626085,42.8595998 L135.283253,40.4619662 C136.030032,39.9727152 136.972053,39.9256134 137.782647,40.2986293 L137.809236,40.3107846 C138.620589,40.6822811 139.200236,41.4260337 139.316469,42.3118514 L139.887,46.6474962 L149.379378,47 L150.26898,42.7190541 C150.451307,41.8446319 151.084892,41.145702 151.922075,40.8357418 L151.948664,40.8251059 C152.785847,40.5136262 153.721031,40.630621 154.429825,41.1738111 L157.898589,43.8365823 L164.858907,37.3745191 L162.462072,33.7172922 C161.972829,32.9705008 161.925728,32.0284647 162.298738,31.2170982 L162.310893,31.1912682 C162.682383,30.379142 163.426124,29.799486 164.311927,29.6832509 L168.647502,29.1127113 L169,19.6209388 L164.719123,18.7305628 C163.844715,18.5482333 163.145797,17.9153978 162.835082,17.0782013 L162.825206,17.0508518 C162.513731,16.2136553 162.630724,15.2784567 163.173905,14.5704102 L165.836633,11.1008308 L159.374675,4.14040022 L155.716747,6.53727411 C154.970728,7.02728478 154.029466,7.07438658 153.217353,6.7013707 L153.191524,6.6892154 C152.379411,6.31695923 151.799764,5.57320661 151.683531,4.68738887 L151.113,0.352503799 L141.622141,0 L140.73102,4.28094592 C140.548693,5.15536805 139.915868,5.854298 139.077925,6.16425824 L139.051336,6.17413442 C138.214153,6.48637378 137.278969,6.36937898 136.570175,5.82542915 L133.101411,3.16341771 Z" id="Fill-8" fill="#F96E10"></path>
                <path d="M13.3314957,172 L260.668504,172 C262.508906,172 264,170.657275 264,169 C264,167.343418 262.508906,166 260.668504,166 L13.3314957,166 C11.4910944,166 10,167.343418 10,169 C10,170.657275 11.4910944,172 13.3314957,172" id="Fill-9" fill="#7E7F7E"></path>
                <path d="M10,170 C10.5135363,171.175929 11.6894266,172 13.061941,172 L260.938059,172 C262.310573,172 263.486464,171.175929 264,170 L10,170" id="Fill-10" fill="#666763"></path>
                <polygon id="Fill-11" fill="#BFBECB" points="86 166 178 166 178 162 86 162"></polygon>
                <polygon id="Fill-12" fill="#9C9DA1" points="96 166 188 166 188 162 96 162"></polygon>
                <path d="M204.626564,141 L68.3726691,141 C65.4051574,141 63,138.592463 63,135.622963 L63,54.3762694 C63,51.4067692 65.4051574,49 68.3726691,49 L204.626564,49 C207.594075,49 210,51.4067692 210,54.3762694 L210,135.622963 C210,138.592463 207.594075,141 204.626564,141" id="Fill-13" fill="#1A2736"></path>
                <polygon id="Fill-14" fill="#1C222B" points="137 128 139 128 139 63 137 63"></polygon>
                <path d="M210,59 L210,54.1384909 C210,51.3002229 207.782805,49 205.046987,49 L67.9530132,49 C65.2171946,49 63,51.3002229 63,54.1384909 L63,59 L210,59" id="Fill-15" fill="#A09FAD"></path>
                <polygon id="Fill-16" fill="#FFFFFE" points="148 101 168 101 168 97 148 97"></polygon>
                <polygon id="Fill-17" fill="#E57441" points="148 107 173 107 173 103 148 103"></polygon>
                <polygon id="Fill-18" fill="#FFFFFE" points="177 107 190 107 190 103 177 103"></polygon>
                <polygon id="Fill-19" fill="#FFFFFE" points="148 114 158 114 158 110 148 110"></polygon>
                <polygon id="Fill-20" fill="#FFFFFE" points="162 114 199 114 199 110 162 110"></polygon>
                <polygon id="Fill-21" fill="#274A8E" points="174 101 186 101 186 97 174 97"></polygon>
                <polygon id="Fill-22" fill="#FFFFFE" points="148 69 168 69 168 65 148 65"></polygon>
                <polygon id="Fill-23" fill="#E57441" points="148 76 173 76 173 72 148 72"></polygon>
                <polygon id="Fill-24" fill="#FFFFFE" points="177 76 190 76 190 72 177 72"></polygon>
                <polygon id="Fill-25" fill="#FFFFFE" points="148 82 158 82 158 78 148 78"></polygon>
                <polygon id="Fill-26" fill="#FFFFFE" points="162 82 199 82 199 78 162 78"></polygon>
                <polygon id="Fill-27" fill="#274A8E" points="174 69 186 69 186 65 174 65"></polygon>
                <polygon id="Fill-28" fill="#FFFFFE" points="80 101 100 101 100 97 80 97"></polygon>
                <polygon id="Fill-29" fill="#E57441" points="80 107 105 107 105 103 80 103"></polygon>
                <polygon id="Fill-30" fill="#FFFFFE" points="107 107 120 107 120 103 107 103"></polygon>
                <polygon id="Fill-31" fill="#FFFFFE" points="80 114 90 114 90 110 80 110"></polygon>
                <polygon id="Fill-32" fill="#FFFFFE" points="93 114 130 114 130 110 93 110"></polygon>
                <polygon id="Fill-33" fill="#274A8E" points="105 101 117 101 117 97 105 97"></polygon>
                <polygon id="Fill-34" fill="#FFFFFE" points="80 69 100 69 100 65 80 65"></polygon>
                <polygon id="Fill-35" fill="#E57441" points="80 76 105 76 105 72 80 72"></polygon>
                <polygon id="Fill-36" fill="#FFFFFE" points="107 76 120 76 120 72 107 72"></polygon>
                <polygon id="Fill-37" fill="#FFFFFE" points="80 82 90 82 90 78 80 78"></polygon>
                <polygon id="Fill-38" fill="#FFFFFE" points="93 82 130 82 130 78 93 78"></polygon>
                <polygon id="Fill-39" fill="#274A8E" points="105 69 117 69 117 65 105 65"></polygon>
                <path d="M70.3504327,52.1673392 C68.0657631,52.1673392 66.2076371,54.0134028 66.2076371,56.2824747 L66.2076371,119.98508 C66.2076371,122.254152 68.0657631,124.100216 70.3504327,124.100216 L203.650339,124.100216 C205.934237,124.100216 207.792363,122.254152 207.792363,119.98508 L207.792363,56.2824747 C207.792363,54.0134028 205.934237,52.1673392 203.650339,52.1673392 L70.3504327,52.1673392 M203.650339,144 L70.3504327,144 C64.6433866,144 60,139.387523 60,133.717525 L60,56.2824747 C60,50.6124769 64.6433866,46 70.3504327,46 L203.650339,46 C209.357385,46 214,50.6124769 214,56.2824747 L214,133.717525 C214,139.387523 209.357385,144 203.650339,144" id="Fill-40" fill="#7E7F7E"></path>
                <path d="M200.962869,125 L193.893505,125 L194.666118,121.617506 L186.765831,114.301024 L187.404176,114.104937 C187.5254,114.067405 187.646624,114.032936 187.768616,114 L193.232143,114 C194.851023,114.435067 196.369394,115.258478 197.641481,116.435764 L197.641481,116.436529 C200.027602,118.646334 201.232171,121.815124 200.962869,125 M184.580727,125 L180.037122,125 C179.947355,123.939907 180.019476,122.8576 180.263459,121.789848 L180.412303,121.139545 L184.580727,125" id="Fill-41" fill="#16202B"></path>
                <path d="M193,113.472 L188,113.472 C188.824322,113.155 189.664794,113 190.498947,113 C191.345738,113 192.186912,113.16 193,113.472" id="Fill-42" fill="#CECDC8"></path>
                <path d="M206.624043,144 L194.948309,133.525794 L193.652722,133.91204 C192.628304,134.218347 191.578392,134.367018 190.536205,134.367018 C187.907175,134.367018 185.328362,133.417466 183.344422,131.637897 C181.385977,129.880741 180.217863,127.502005 180,125 L184.575114,125 L188.332085,128.370871 L193.522158,126.822153 L193.952476,125 L201.070865,125 C201.029919,125.472908 200.954208,125.946563 200.843732,126.41723 L200.54166,127.695502 L213,138.871972 C211.714456,141.336623 209.412221,143.219291 206.624043,144" id="Fill-43" fill="#696967"></path>
                <path d="M202.875082,51 L70.1256864,51 C67.8504522,51 66,52.6410082 66,54.6580381 L66,56 C66,53.98297 67.8504522,52.3419619 70.1256864,52.3419619 L202.875082,52.3419619 C205.149548,52.3419619 207,53.98297 207,56 L207,54.6580381 C207,52.6410082 205.149548,51 202.875082,51" id="Fill-44" fill="#666763"></path>
                <path d="M203.650339,142.464418 L70.3504327,142.464418 C64.6433866,142.464418 60,137.770326 60,132 L60,133.535582 C60,139.305908 64.6433866,144 70.3504327,144 L203.650339,144 C209.357385,144 214,139.305908 214,133.535582 L214,132 C214,137.770326 209.357385,142.464418 203.650339,142.464418" id="Fill-45" fill="#666763"></path>
                <path d="M201,55.499629 C201,56.3277269 200.328469,57 199.499629,57 C198.671531,57 198,56.3277269 198,55.499629 C198,54.671531 198.671531,54 199.499629,54 C200.328469,54 201,54.671531 201,55.499629" id="Fill-46" fill="#FFFFFE"></path>
                <path d="M195,55.499629 C195,56.3277269 194.328469,57 193.500371,57 C192.672273,57 192,56.3277269 192,55.499629 C192,54.671531 192.672273,54 193.500371,54 C194.328469,54 195,54.671531 195,55.499629" id="Fill-47" fill="#1C222B"></path>
                <path d="M190,55.499629 C190,56.3277269 189.328469,57 188.500371,57 C187.670789,57 187,56.3277269 187,55.499629 C187,54.671531 187.670789,54 188.500371,54 C189.328469,54 190,54.671531 190,55.499629" id="Fill-48" fill="#E57441"></path>
                <polyline id="Fill-49" fill="#CA8E41" points="55.4340196 166 89 87.9318715 84.3960809 86 50 166 55.4340196 166"></polyline>
                <path d="M56,102.5 C56,101.119461 57.1229479,100 58.5077875,100 L80,100 L80,105 L58.5077875,105 C57.1229479,105 56,103.880539 56,102.5" id="Fill-50" fill="#CA8E41"></path>
                <polygon id="Fill-51" fill="#CA8E41" points="49 123 73 123 73 118 49 118"></polygon>
                <polygon id="Fill-52" fill="#CA8E41" points="42 141 67 141 67 136 42 136"></polygon>
                <polygon id="Fill-53" fill="#CA8E41" points="35 158 59 158 59 153 35 153"></polygon>
                <path d="M228.266321,159.585409 L202.168998,122.080975 L202.725933,120.863532 C204.27885,117.470444 203.924437,113.49693 201.797205,110.440322 C199.669973,107.38295 196.092595,105.706671 192.413202,106.042386 L191.757274,106.102034 L197.868438,114.884143 L195.635411,119.763092 L190.344157,120.245633 L184.233748,111.46429 L183.95717,112.068423 C182.405009,115.460746 182.758666,119.43426 184.886654,122.490868 C187.01313,125.54824 190.591263,127.224519 194.270657,126.888804 L195.591581,126.768742 L221.688904,164.272412 C222.967511,166.110813 225.477116,166.552059 227.293009,165.256614 C229.109657,163.962699 229.544928,161.42381 228.266321,159.585409" id="Fill-54" fill="#A6A6A3"></path>
                <path d="M225.153839,161.62887 C224.253772,162.276175 223.010569,162.054708 222.376795,161.136203 L200.363582,129.208451 C199.729808,128.28917 199.945884,127.018649 200.845951,126.371344 C201.745257,125.724039 202.989221,125.944729 203.622995,126.864011 L225.636208,158.791763 C226.269982,159.711045 226.054666,160.981565 225.153839,161.62887" id="Fill-55" fill="#7E7F7E"></path>
                <path d="M268.683233,256 L4.31753601,256 C1.93282362,256 0,254.209327 0,252.000712 C0,249.791385 1.93282362,248 4.31753601,248 L268.683233,248 C271.067945,248 273,249.791385 273,252.000712 C273,254.209327 271.067945,256 268.683233,256" id="Fill-56" fill="#E2E3E8"></path>
                <path d="M188.660478,256 L86.3395221,256 C83.9426661,256 82,254.209327 82,252.000712 C82,249.791385 83.9426661,248 86.3395221,248 L188.660478,248 C191.057334,248 193,249.791385 193,252.000712 C193,254.209327 191.057334,256 188.660478,256" id="Fill-57" fill="#BFBECB"></path>
                <path d="M137,178 L161.463834,178 C161.859457,178 162.274359,178.023953 162.704686,178.067996 C171.025875,178.933393 176.553798,187.160849 174.609616,195.313356 L164.599511,242 L150.213648,242 L157.118924,197.71947 L137,197.71947 L137,178" id="Fill-58" fill="#80705C"></path>
                <path d="M149,241 L161.111077,241 C161.111077,241 174,242.2499 174,251 L149,251 L149,241" id="Fill-59" fill="#241B14"></path>
                <path d="M137,178 L112.536166,178 C112.140543,178 111.724869,178.023953 111.295314,178.067996 C102.974125,178.933393 97.4462022,187.160849 99.3903837,195.313356 L109.400489,242 L123.786352,242 L116.881076,197.71947 L137,197.71947 L137,178" id="Fill-60" fill="#80705C"></path>
                <path d="M158.633966,240 C158.681718,239.843433 158.73024,239.689147 158.777992,239.531821 C160.44161,234.124955 162.011264,221.191497 163.566285,215.752711 C165.229903,209.934668 166.781843,204.076344 167.927891,198.133657 C168.1628,196.915326 168.36382,195.691675 168.579474,194.469544 C168.661115,193.920042 168.716569,193.556746 168.745836,193.372059 C168.822085,192.735152 168.897564,192.099006 168.96072,191.461339 C168.976124,191.307053 168.985366,191.153526 169,191 L137,191 L137,196.444107 L157.092808,196.444107 L150.196496,240 L158.633966,240" id="Fill-61" fill="#584A3B"></path>
                <path d="M138,191 L107,191 C107.146813,191.618666 107.299063,192.237332 107.459858,192.854477 C108.823118,198.100216 110.575549,203.23803 112.324872,208.369003 C114.030696,213.369251 115.815751,218.370259 117.129297,223.487553 C117.900646,226.490438 118.487897,237.011556 119.259246,240 L124.690538,240 L117.735191,196.444107 L138,196.444107 L138,191" id="Fill-62" fill="#584A3B"></path>
                <path d="M122.982128,96.0842265 C122.982128,96.0842265 119.895668,91.0853849 116.361625,93.8157239 C112.826804,96.546063 116.574537,106.420111 123,104.827214 L122.982128,96.0842265" id="Fill-63" fill="#E4A678"></path>
                <path d="M122.990353,99.7311912 L123,103.98236 C117.775768,104.411847 115.540628,96.863423 117.998392,96.0903462 C119.98642,95.4641992 122.113216,98.2453165 122.990353,99.7311912" id="Fill-64" fill="#EEA082"></path>
                <path d="M117.007288,98.2481929 L117.041596,98.1361029 C117.063971,98.0632445 117.100516,97.9604954 117.14452,97.8325261 C117.241477,97.5840602 117.403321,97.2253725 117.67704,96.9871814 C117.745656,96.9274001 117.823967,96.8825642 117.902279,96.8452009 L118.029069,96.7984968 L118.059648,96.7891559 L118.06114,96.7882218 L118.05219,96.7919582 L118.056665,96.7910241 L118.068598,96.7891559 L118.08799,96.7854196 L118.171522,96.767672 L118.322179,96.7471222 L118.467615,96.74432 L118.619764,96.755529 L118.777879,96.7807492 C119.197779,96.8685529 119.630358,97.1310301 120.035341,97.4701021 C120.241935,97.6363688 120.43585,97.8287898 120.626782,98.024013 C120.81473,98.2211045 120.998949,98.4238004 121.173472,98.6264963 C121.521027,99.0365585 121.833528,99.4428844 122.104263,99.7940994 C122.642749,100.518013 123,101 123,101 C123,101 122.961217,100.839338 122.871718,100.570322 C122.779235,100.30224 122.638274,99.9239369 122.434664,99.494259 C122.33174,99.27942 122.218374,99.0458993 122.08338,98.8123787 C121.949877,98.5769899 121.800712,98.3331944 121.634393,98.0931352 C121.301008,97.6139508 120.904229,97.1328983 120.435104,96.7415177 C120.198677,96.5481626 119.94808,96.3734892 119.680328,96.2445858 C119.412577,96.1138143 119.127671,96.0278787 118.845003,96.0063948 C118.77415,95.9989221 118.704788,95.9989221 118.633189,96.0017244 C118.563827,95.9989221 118.495211,96.009197 118.427341,96.020406 C118.360962,96.0278787 118.2916,96.0437581 118.220747,96.0643079 C118.149893,96.0839236 118.082769,96.1035394 118.035036,96.1278255 L117.952995,96.1642547 L117.903025,96.1857386 L117.856038,96.2109588 L117.683006,96.3221147 C117.575607,96.4089843 117.480887,96.507063 117.404067,96.6126143 C117.243715,96.8209147 117.154961,97.0535013 117.098279,97.2561972 C117.039358,97.4588931 117.020713,97.6419733 117.008034,97.7876902 C116.9961,97.9343411 117.000575,98.0520355 117.002067,98.1295644 L117.007288,98.2481929" id="Fill-65" fill="#C28961"></path>
                <path d="M155.438301,99.223623 C155.438301,99.223623 159.20751,95.001752 162.149867,98.1927547 C165.096002,101.383757 159.899829,110.124998 154,107.522844 L155.438301,99.223623" id="Fill-66" fill="#E4A678"></path>
                <path d="M154.728764,101.82279 L154,105.839736 C159.088691,107.11871 162.576931,100.357284 160.278236,99.214956 C158.420968,98.2916947 155.847591,100.564783 154.728764,101.82279" id="Fill-67" fill="#EEA082"></path>
                <path d="M160.935411,100.592095 L160.917086,100.477616 C160.906513,100.400066 160.886778,100.293896 160.860699,100.158183 C160.805017,99.8950666 160.700701,99.5110085 160.473745,99.2211186 C160.419472,99.1500309 160.354628,99.0900218 160.283439,99.0364753 L160.17419,98.9663108 L160.144587,98.9496929 L160.142472,98.9487697 L160.150226,98.9524626 L160.147406,98.9524626 L160.137539,98.9469233 L160.118508,98.9376911 L160.042386,98.9035321 L159.905648,98.851832 L159.77032,98.8167498 L159.626534,98.7955158 L159.477814,98.7872069 C159.075353,98.783514 158.637651,98.9460001 158.21616,99.1906524 C158.004005,99.3097473 157.797488,99.4556155 157.593791,99.6060998 C157.393618,99.7584305 157.195559,99.9153773 157.007369,100.077863 C156.630987,100.402836 156.287733,100.730577 155.989588,101.015851 C155.395412,101.60671 155,102 155,102 C155,102 155.057796,101.851362 155.176913,101.609479 C155.294621,101.36852 155.476468,101.027853 155.722455,100.653027 C155.845097,100.466538 155.98113,100.26343 156.137603,100.064015 C156.292666,99.8636772 156.461827,99.6587232 156.647903,99.4593084 C157.019351,99.0641718 157.45071,98.6791905 157.938455,98.3966863 C158.181623,98.2591271 158.441002,98.1428018 158.707429,98.0744838 C158.973152,98.0033961 159.248037,97.9793925 159.514465,98.0190908 C159.582129,98.0264765 159.646974,98.0430944 159.711819,98.0597123 C159.777368,98.0726373 159.839394,98.0947945 159.902829,98.122491 L160.0882,98.2092734 L160.253836,98.3108272 L160.32432,98.3606809 L160.368019,98.3939167 L160.4089,98.4280757 L160.556915,98.5739439 C160.64361,98.681037 160.719027,98.7945926 160.778938,98.9146107 C160.90017,99.1528006 160.951622,99.3974529 160.978406,99.6051766 C161.007304,99.8156699 161.000961,99.9975436 160.994617,100.144335 C160.986159,100.290203 160.967129,100.402836 160.955147,100.478539 L160.935411,100.592095" id="Fill-68" fill="#C28961"></path>
                <path d="M133.212379,111.016309 L141.622275,111 L142,124.282761 C142,124.282761 141.387115,126.932938 137.656161,126.998914 C133.924471,127.062667 133,124.298328 133,124.298328 C133.030865,124.224939 133.212379,111.016309 133.212379,111.016309" id="Fill-69" fill="#E4A678"></path>
                <path d="M133.212379,111.016309 L141.622275,111 L142,124.282761 C142,124.282761 141.387115,126.932938 137.656161,126.998914 C133.924471,127.062667 133,124.298328 133,124.298328 C133.030865,124.224939 133.212379,111.016309 133.212379,111.016309" id="Fill-70" fill="#C28961"></path>
                <path d="M133.430683,114 L142,114.849309 C142,114.849309 141.960915,116.82959 141.933105,118.516112 C141.930099,118.760623 139.436195,118.94379 139.165609,118.966254 C137.0385,119.139917 134.996325,118.625839 133,117.825778 C133.196175,116.116792 133.430683,114 133.430683,114" id="Fill-71" fill="#C28961"></path>
                <path d="M120.450218,91.4179442 C121.173883,85.2823215 124.234727,79.6998915 130.347352,77.8367507 C133.456542,76.8880872 136.78404,76.857786 139.997474,77.1973158 C143.170117,77.5321839 146.53765,78.0449749 149.425511,79.4947751 C154.598429,82.0929165 153.581673,84.8720886 153.654946,90.5407607 C153.663255,91.0970613 157.028522,94.1093203 156.999817,94.66329 C156.936365,95.9351672 156.926544,97.1922822 156.773955,98.4610516 C156.431008,101.312481 155.746624,104.142155 154.612026,106.77759 C153.234948,109.976319 151.141759,112.87048 148.281848,114.865704 C146.657758,116.000837 144.828956,116.816641 142.920838,117.323993 C139.769346,118.160775 136.826342,118.267995 133.679383,117.37838 C131.546914,116.776239 129.495271,115.860208 127.68611,114.562691 C124.686451,112.411299 122.566069,109.294151 121.37104,105.800956 C120.368636,102.861731 119.980365,99.7259362 120.00076,96.6282121 C120.012091,94.9328938 120.123889,93.2181516 120.42529,91.5500267 L120.450218,91.4179442" id="Fill-72" fill="#C28961"></path>
                <path d="M120.022071,92 C120.022071,92 119.892071,89.807316 120.263071,87 C119.942071,89.859776 120.022071,92 120.022071,92" id="Fill-73" fill="#C28961"></path>
                <path d="M124.09843,79.6133957 C129.611255,71.304211 159.075983,68.7844527 160.942016,96.7795387 C162.303321,117.181403 139.350886,119.719678 128.305262,114.930131 C109.514334,106.780649 118.584836,87.9210374 124.09843,79.6133957" id="Fill-74" fill="#A86C30"></path>
                <path d="M120.447674,100 C120.447674,100 117.828767,99.1982432 116.338075,93.2967872 C115.31991,89.2640354 116.485066,80.7725261 121.431207,76.6872001 C124.333323,74.2896611 125.139851,75.4076364 125.139851,75.4076364 C125.139851,75.4076364 125.899435,72.5199202 131.391213,70.1277932 C149.394182,62.2880496 153.986313,70.8174433 156.546732,77.8554301 C160.040661,87.461049 158.28677,94.6273788 139.459573,88.4367647 C131.855275,85.9363967 127.024572,84.6893053 127.024572,84.6893053 C127.024572,84.6893053 127.086909,87.1657056 125.563894,90.676581 C124.04088,94.1874563 120.389955,98.0006334 120.389955,98.0006334" id="Fill-75" fill="#A86C30"></path>
                <path d="M171.384636,154.616579 L160.859191,130.714779 C159.35093,127.290679 155.302682,125 150.760933,125 L124.239127,125 C119.696607,125 115.64913,127.290679 114.140869,130.714779 L103.615425,154.616579 C101.167198,160.175263 106.328136,166 113.702116,166 L161.297173,166 C168.671153,166 173.832862,160.175263 171.384636,154.616579" id="Fill-76" fill="#274A8E"></path>
                <path d="M153.228298,191 L122.771702,191 C116.822945,191 112,186.135878 112,180.135381 L112,139.865391 C112,133.864893 116.822945,129 122.771702,129 L153.228298,129 C159.177055,129 164,133.864893 164,139.865391 L164,180.135381 C164,186.135878 159.177055,191 153.228298,191" id="Fill-77" fill="#3C6C80"></path>
                <path d="M150.212236,187 L124.786998,187 C118.82937,187 114,182.151867 114,176.172811 L114,139.827189 C114,133.848133 118.82937,129 124.786998,129 L150.212236,129 C156.169864,129 161,133.848133 161,139.827958 L161,176.172811 C161,182.151867 156.169864,187 150.212236,187" id="Fill-78" fill="#2B5467"></path>
                <path d="M149.212412,122 L123.787588,122 C117.830058,122 113,117.094947 113,111.044914 L113,101.955086 C113,95.9042756 117.830058,91 123.787588,91 L149.212412,91 C155.169942,91 160,95.9042756 160,101.955086 L160,111.044914 C160,117.094947 155.169942,122 149.212412,122" id="Fill-79" fill="#3C6C80"></path>
                <path d="M149.324751,119 L125.675249,119 C120.883825,119 117,115.061571 117,110.204277 L117,100.795723 C117,95.9384291 120.883825,92 125.675249,92 L149.324751,92 C154.116175,92 158,95.9384291 158,100.796491 L158,110.204277 C158,115.061571 154.116175,119 149.324751,119" id="Fill-80" fill="#2B5467"></path>
                <path d="M168,198.499599 C168,202.64154 154.344073,206 137.5,206 C120.655161,206 107,202.64154 107,198.499599 C107,194.357658 120.655161,191 137.5,191 C154.344073,191 168,194.357658 168,198.499599" id="Fill-81" fill="#2B5467"></path>
                <path d="M113,193.855788 C118.527722,194.555077 126.777668,195 135.999621,195 C145.223089,195 153.472278,194.555077 159,193.855788 C153.472278,192.109722 145.223089,191 135.999621,191 C126.777668,191 118.527722,192.109722 113,193.855788" id="Fill-82" fill="#3C6C80"></path>
                <path d="M136.865193,206.045 C136.849824,206.045 136.834456,206.045 136.819819,206.045 C136.834456,206.045 136.849824,206.045 136.865193,206.045 C136.87983,206.045 136.895199,206.045 136.909836,206.045 C136.895199,206.045 136.87983,206.045 136.865193,206.045 M136.806645,206.045 C136.796399,206.045 136.786885,206.045 136.775907,206.045 C136.786153,206.045 136.797131,206.045 136.806645,206.045 M136.923009,206.045 C136.932523,206.045 136.943501,206.045 136.953747,206.045 C136.942769,206.045 136.933255,206.045 136.923009,206.045 M136.757611,206.045 C136.748829,206.045 136.740047,206.045 136.731265,206.045 C136.738583,206.045 136.749561,206.045 136.757611,206.045 M136.972043,206.045 C136.980094,206.045 136.991071,206.045 136.99839,206.045 C136.99034,206.045 136.980826,206.045 136.972043,206.045 M136.714432,206.045 C136.704186,206.045 136.695404,206.045 136.685158,206.045 C136.694672,206.045 136.704918,206.045 136.714432,206.045 M137.015222,206.045 C137.024737,206.045 137.034982,206.045 137.044496,206.045 C137.034982,206.045 137.024737,206.045 137.015222,206.045 M136.669057,206.045 C136.658811,206.045 136.647102,206.045 136.636856,206.045 C136.647102,206.045 136.659543,206.045 136.669057,206.045 M137.060597,206.045 C137.070111,206.045 137.082553,206.045 137.092799,206.045 C137.082553,206.045 137.070843,206.045 137.060597,206.045 M136.625878,206.045 C136.6149,206.045 136.603191,206.045 136.592213,206.045 C136.603923,206.045 136.614169,206.045 136.625878,206.045 M137.103776,206.045 C137.115486,206.045 137.125732,206.045 137.137441,206.045 C137.126464,206.045 137.114754,206.045 137.103776,206.045 M136.57904,206.045 C136.549766,206.044 136.521956,206.044 136.492681,206.044 C136.521956,206.044 136.549766,206.044 136.57904,206.045 M137.150615,206.045 C137.179157,206.044 137.207699,206.044 137.236241,206.044 C137.206967,206.044 137.179889,206.044 137.150615,206.045 M136.469262,206.044 C136.461944,206.044 136.453893,206.044 136.445843,206.044 C136.453893,206.044 136.461944,206.044 136.469262,206.044 M137.260392,206.044 C137.268443,206.044 137.275761,206.044 137.283811,206.044 C137.275761,206.044 137.268443,206.044 137.260392,206.044 M136.429011,206.044 C136.420228,206.044 136.410714,206.044 136.401932,206.044 C136.410714,206.044 136.419496,206.044 136.429011,206.044 M137.301376,206.044 C137.310158,206.044 137.318208,206.044 137.327722,206.044 C137.31894,206.044 137.310158,206.044 137.301376,206.044 M136.382904,206.044 C136.374854,206.044 136.36534,206.044 136.357289,206.044 C136.366071,206.044 136.374122,206.044 136.382904,206.044 M137.346751,206.044 C137.355533,206.044 137.363583,206.044 137.372365,206.044 C137.364315,206.044 137.354801,206.044 137.346751,206.044 M136.336066,206.043 C136.330211,206.043 136.322892,206.043 136.317037,206.043 C136.322892,206.043 136.330211,206.043 136.336066,206.043 M137.393589,206.043 C137.399444,206.043 137.40603,206.043 137.411885,206.043 C137.40603,206.043 137.400176,206.043 137.393589,206.043 M136.291423,206.043 C136.284104,206.043 136.276786,206.043 136.270199,206.043 C136.276786,206.043 136.284836,206.043 136.291423,206.043 M137.438232,206.043 C137.44555,206.043 137.452137,206.043 137.459456,206.043 C137.452137,206.043 137.44555,206.043 137.438232,206.043 M136.248975,206.043 C136.23873,206.043 136.229215,206.043 136.21897,206.043 C136.228484,206.043 136.239461,206.043 136.248975,206.043 M137.480679,206.043 C137.489461,206.043 137.501171,206.043 137.509953,206.043 C137.500439,206.043 137.490193,206.043 137.480679,206.043 M136.205064,206.043 C136.190427,206.043 136.176522,206.042 136.161885,206.042 C136.176522,206.042 136.190427,206.043 136.205064,206.043 M137.52459,206.043 C137.538495,206.043 137.553864,206.042 137.567769,206.042 C137.553132,206.042 137.539227,206.043 137.52459,206.043 M136.140662,206.042 C136.133343,206.042 136.126756,206.042 136.119438,206.042 C136.127488,206.042 136.132611,206.042 136.140662,206.042 M137.591189,206.042 C137.597775,206.042 137.60363,206.042 137.610217,206.042 C137.602898,206.042 137.597775,206.042 137.591189,206.042 M136.093091,206.042 C136.087237,206.042 136.079918,206.042 136.074063,206.042 C136.079918,206.042 136.087237,206.042 136.093091,206.042 M137.637295,206.042 C137.64315,206.042 137.649005,206.042 137.654859,206.042 C137.649005,206.042 137.64315,206.042 137.637295,206.042 M136.055035,206.041 C136.046253,206.041 136.036007,206.041 136.027957,206.041 C136.036739,206.041 136.046253,206.041 136.055035,206.041 M137.675351,206.041 C137.684133,206.041 137.692916,206.041 137.701698,206.041 C137.692916,206.041 137.684133,206.041 137.675351,206.041 M136.008929,206.041 C136.000878,206.041 135.992828,206.041 135.984778,206.041 C135.992828,206.041 136.000878,206.041 136.008929,206.041 M137.721458,206.041 C137.728044,206.041 137.736827,206.041 137.744145,206.041 C137.736095,206.041 137.729508,206.041 137.721458,206.041 M135.965018,206.041 C135.956967,206.041 135.948185,206.04 135.940867,206.04 C135.948917,206.04 135.956967,206.041 135.965018,206.041 M137.765369,206.041 C137.771956,206.041 137.780738,206.04 137.788056,206.04 C137.780006,206.04 137.773419,206.041 137.765369,206.041 M135.919643,206.04 C135.907933,206.04 135.896956,206.04 135.885246,206.04 C135.896956,206.04 135.907933,206.04 135.919643,206.04 M137.810744,206.04 C137.820989,206.04 137.830504,206.04 137.840749,206.04 C137.830504,206.04 137.820989,206.04 137.810744,206.04 M135.877927,206.04 C135.865486,206.04 135.850849,206.039 135.837676,206.039 C135.851581,206.039 135.864754,206.04 135.877927,206.04 M137.851727,206.04 C137.863437,206.04 137.875146,206.039 137.886856,206.039 C137.875146,206.039 137.864169,206.04 137.851727,206.04 M135.816452,206.039 C135.808402,206.039 135.798156,206.039 135.789374,206.039 C135.798888,206.039 135.806938,206.039 135.816452,206.039 M137.916862,206.039 C137.924912,206.039 137.932231,206.039 137.939549,206.039 C137.932231,206.039 137.924912,206.039 137.916862,206.039 M135.766686,206.038 C135.760831,206.038 135.753513,206.038 135.747658,206.038 C135.754245,206.038 135.7601,206.038 135.766686,206.038 M137.965896,206.038 C137.971751,206.038 137.97541,206.038 137.981265,206.038 C137.976142,206.038 137.971019,206.038 137.965896,206.038 M135.723507,206.038 C135.716189,206.038 135.70887,206.038 135.70082,206.038 C135.70887,206.038 135.716189,206.038 135.723507,206.038 M138.006879,206.038 C138.014198,206.038 138.021516,206.038 138.028103,206.038 C138.020785,206.038 138.014198,206.038 138.006879,206.038 M135.680328,206.037 C135.673009,206.037 135.665691,206.037 135.658372,206.037 C135.664959,206.037 135.673009,206.037 135.680328,206.037 M138.05079,206.037 C138.056645,206.037 138.063964,206.037 138.069819,206.037 C138.063232,206.037 138.057377,206.037 138.05079,206.037 M135.637149,206.037 C135.627635,206.037 135.618121,206.037 135.608607,206.036 C135.618121,206.037 135.627635,206.037 135.637149,206.037 M138.093238,206.037 C138.10202,206.037 138.110802,206.037 138.119584,206.036 C138.110802,206.037 138.10202,206.037 138.093238,206.037 M135.594701,206.036 C135.584456,206.036 135.57421,206.036 135.563964,206.036 C135.57421,206.036 135.583724,206.036 135.594701,206.036 M138.136417,206.036 C138.144467,206.036 138.153981,206.036 138.162763,206.036 C138.154713,206.036 138.144467,206.036 138.136417,206.036 M135.549327,206.036 C135.521516,206.035 135.491511,206.035 135.462968,206.034 C135.492242,206.035 135.520053,206.035 135.549327,206.036 M138.18106,206.036 C138.192769,206.035 138.203747,206.035 138.215457,206.035 C138.203747,206.035 138.192769,206.035 138.18106,206.036 M138.245463,206.035 C138.252781,206.035 138.258636,206.034 138.265954,206.034 C138.258636,206.034 138.252781,206.035 138.245463,206.035 M135.438085,206.034 C135.431499,206.034 135.426376,206.034 135.419057,206.034 C135.426376,206.034 135.431499,206.034 135.438085,206.034 M138.295228,206.034 C138.300351,206.034 138.304742,206.034 138.309133,206.034 C138.304742,206.034 138.299619,206.034 138.295228,206.034 M135.397102,206.033 C135.389052,206.033 135.383929,206.033 135.375878,206.033 C135.383197,206.033 135.389783,206.033 135.397102,206.033 M138.33548,206.033 C138.341335,206.033 138.346458,206.033 138.352313,206.033 C138.346458,206.033 138.341335,206.033 138.33548,206.033 M135.3488,206.033 C135.343677,206.032 135.339286,206.032 135.334163,206.032 C135.339286,206.032 135.344409,206.032 135.3488,206.033 M138.38305,206.032 C138.38671,206.032 138.389637,206.032 138.393296,206.032 C138.389637,206.032 138.385978,206.032 138.38305,206.032 M135.307816,206.032 C135.301961,206.032 135.296838,206.032 135.290984,206.032 C135.296838,206.032 135.301961,206.032 135.307816,206.032 M138.423302,206.032 C138.428425,206.032 138.432084,206.032 138.436475,206.032 C138.432816,206.032 138.427693,206.032 138.423302,206.032 M135.26171,206.031 C135.25805,206.031 135.255123,206.031 135.250732,206.031 C135.253659,206.031 135.258782,206.031 135.26171,206.031 M138.469409,206.031 C138.470141,206.031 138.472336,206.031 138.473068,206.031 C138.472336,206.031 138.470141,206.031 138.469409,206.031 M135.221458,206.03 C135.215603,206.03 135.21048,206.03 135.204625,206.03 C135.209748,206.03 135.216335,206.03 135.221458,206.03 M138.50966,206.03 C138.512588,206.03 138.515515,206.03 138.518443,206.03 C138.514783,206.03 138.512588,206.03 138.50966,206.03 M135.097043,206.028 L135.096311,206.028 C135.097043,206.028 135.096311,206.028 135.097043,206.028 M135.066306,206.027 C135.061183,206.027 135.055328,206.027 135.050205,206.027 C135.05606,206.027 135.060451,206.027 135.066306,206.027 M138.666276,206.027 C138.670667,206.027 138.673595,206.027 138.677986,206.027 C138.674327,206.027 138.669936,206.027 138.666276,206.027 M135.021663,206.027 C135.018004,206.026 135.014344,206.026 135.009953,206.026 C135.013612,206.026 135.018004,206.026 135.021663,206.027 M138.710919,206.026 C138.713115,206.026 138.71531,206.026 138.717506,206.026 C138.71531,206.026 138.713115,206.026 138.710919,206.026 M134.980679,206.026 C134.974824,206.026 134.969701,206.025 134.963847,206.025 C134.96897,206.025 134.975556,206.026 134.980679,206.026 M138.751171,206.026 C138.75483,206.026 138.758489,206.026 138.762149,206.025 C138.757758,206.026 138.755562,206.026 138.751171,206.026 M134.9375,206.025 C134.931645,206.025 134.926522,206.025 134.920667,206.024 C134.926522,206.025 134.931645,206.025 134.9375,206.025 M138.793618,206.025 C138.796546,206.025 138.800205,206.025 138.803132,206.025 C138.799473,206.025 138.797278,206.025 138.793618,206.025 M134.895785,206.024 C134.890662,206.024 134.884075,206.024 134.878952,206.024 C134.884807,206.024 134.88993,206.024 134.895785,206.024 M138.835334,206.024 C138.838261,206.024 138.841189,206.024 138.844116,206.024 C138.840457,206.024 138.838993,206.024 138.835334,206.024 M134.736973,206.02 C134.734046,206.02 134.730386,206.02 134.727459,206.02 C134.730386,206.02 134.734046,206.02 134.736973,206.02 M138.998536,206.02 L139,206.02 C138.999268,206.02 138.999268,206.02 138.998536,206.02 M134.69233,206.019 C134.690867,206.019 134.688671,206.019 134.687207,206.019 C134.688671,206.019 134.690867,206.019 134.69233,206.019 M134.651347,206.018 C134.649151,206.018 134.646956,206.018 134.645492,206.018 C134.646956,206.018 134.649151,206.018 134.651347,206.018 M134.608899,206.017 C134.607436,206.017 134.606704,206.017 134.605972,206.017 C134.607436,206.017 134.607436,206.017 134.608899,206.017 M134.567916,206.016 C134.567184,206.016 134.564988,206.016 134.564256,206.016 C134.56572,206.016 134.566452,206.016 134.567916,206.016 M134.409104,206.012 C134.406909,206.012 134.406177,206.012 134.403249,206.012 C134.405445,206.012 134.406909,206.012 134.409104,206.012 M134.367389,206.011 C134.365925,206.011 134.364461,206.011 134.362266,206.011 C134.36373,206.011 134.366657,206.011 134.367389,206.011 M134.327869,206.01 C134.32421,206.01 134.322746,206.01 134.319819,206.01 C134.322746,206.01 134.324941,206.01 134.327869,206.01 M134.28469,206.009 C134.283226,206.009 134.282494,206.009 134.28103,206.009 C134.283226,206.009 134.282494,206.009 134.28469,206.009 M134.242974,206.008 C134.242242,206.008 134.241511,206.008 134.240779,206.008 C134.242242,206.008 134.242242,206.008 134.242974,206.008 M134.000732,206 L134,206 L134.000732,206" id="Fill-83" fill="#77B8C9"></path>
                <path d="M137.000384,205 C136.984248,205 136.968111,205 136.952743,205 C136.948132,205 136.943522,205 136.938911,205 C136.928922,205 136.917396,205 136.906638,205 C136.899722,205 136.894343,205 136.887427,205 C136.878975,205 136.867449,205 136.859765,205 C136.854386,205 136.84747,205 136.842091,205 C136.832102,205 136.821344,205 136.811355,205 C136.805976,205 136.799828,205 136.794449,205 C136.78446,205 136.771397,205 136.760639,205 C136.757566,205 136.752955,205 136.749113,205 C136.736819,205 136.726061,205 136.713766,205 C136.709156,205 136.704545,205 136.699935,205 C136.669198,204.999335 136.639998,204.999335 136.609262,204.999335 C136.600809,204.999335 136.593125,204.999335 136.584673,204.999335 C136.576989,204.999335 136.568536,204.999335 136.560084,204.999335 C136.553936,204.999335 136.548557,204.999335 136.54241,204.999335 C136.532421,204.999335 136.5232,204.999335 136.513979,204.999335 C136.507063,204.999335 136.500916,204.999335 136.494,204.999335 C136.484779,204.999335 136.476326,204.999335 136.467106,204.999335 C136.458653,204.999335 136.452506,204.999335 136.444822,204.998671 C136.438674,204.998671 136.43099,204.998671 136.424843,204.998671 C136.415622,204.998671 136.407169,204.998671 136.397948,204.998671 C136.391033,204.998671 136.38258,204.998671 136.375664,204.998671 C136.36798,204.998671 136.360296,204.998671 136.35338,204.998671 C136.343391,204.998671 136.331865,204.998671 136.321875,204.998671 C136.317265,204.998671 136.311886,204.998671 136.307276,204.998671 C136.291907,204.998671 136.277307,204.998006 136.261939,204.998006 C136.254255,204.998006 136.247339,204.998006 136.239655,204.998006 C136.231203,204.998006 136.225824,204.998006 136.217371,204.998006 C136.20815,204.998006 136.198929,204.998006 136.189708,204.998006 C136.183561,204.998006 136.175877,204.998006 136.16973,204.998006 C136.162814,204.998006 136.156667,204.997342 136.149751,204.997342 C136.14053,204.997342 136.130541,204.997342 136.12132,204.997342 C136.113635,204.997342 136.108257,204.997342 136.101341,204.997342 C136.092888,204.997342 136.084436,204.997342 136.075983,204.997342 C136.069068,204.997342 136.062152,204.997342 136.055236,204.997342 C136.046784,204.997342 136.038331,204.996677 136.029878,204.996677 C136.022963,204.996677 136.01451,204.996677 136.007594,204.996677 C135.9953,204.996677 135.983774,204.996677 135.971479,204.996677 C135.968405,204.996677 135.966869,204.996677 135.963795,204.996677 C135.949964,204.996677 135.936132,204.996013 135.921532,204.996013 C135.913848,204.996013 135.907701,204.996013 135.899248,204.996013 C135.889259,204.996013 135.880806,204.996013 135.870817,204.996013 C135.862364,204.996013 135.855449,204.996013 135.846996,204.995348 C135.84008,204.995348 135.833933,204.995348 135.827017,204.995348 C135.817796,204.995348 135.810881,204.995348 135.80166,204.995348 C135.793976,204.995348 135.786292,204.995348 135.777839,204.995348 C135.770923,204.995348 135.763239,204.994684 135.756323,204.994684 C135.748639,204.994684 135.740187,204.994684 135.733271,204.994684 C135.725587,204.994684 135.718671,204.994684 135.710987,204.994684 C135.700998,204.994684 135.691008,204.994684 135.681019,204.994019 C135.676408,204.994019 135.67103,204.994019 135.666419,204.994019 C135.654893,204.994019 135.644904,204.994019 135.634146,204.994019 C135.628767,204.994019 135.624156,204.994019 135.618777,204.994019 C135.588041,204.993355 135.558841,204.993355 135.528105,204.99269 C135.519652,204.99269 135.5112,204.99269 135.501979,204.99269 C135.495063,204.99269 135.489684,204.99269 135.482,204.99269 C135.475084,204.99269 135.465863,204.992026 135.458948,204.992026 C135.451263,204.992026 135.444348,204.992026 135.436664,204.992026 C135.428211,204.992026 135.417453,204.992026 135.408232,204.992026 C135.403622,204.991361 135.398243,204.991361 135.392864,204.991361 C135.383643,204.991361 135.374422,204.991361 135.365201,204.991361 C135.359054,204.991361 135.353675,204.991361 135.347528,204.991361 C135.337538,204.990696 135.32678,204.990696 135.316791,204.990696 C135.313717,204.990696 135.308339,204.990696 135.305265,204.990696 C135.295276,204.990696 135.284518,204.990696 135.274528,204.990032 C135.269149,204.990032 135.262234,204.990032 135.256855,204.990032 C135.219203,204.989367 135.18155,204.989367 135.143898,204.988703 C135.14313,204.988703 135.143898,204.988703 135.14313,204.988703 C135.132372,204.988703 135.122383,204.988703 135.111625,204.988038 C135.105478,204.988038 135.100867,204.988038 135.09472,204.988038 C135.08473,204.988038 135.074741,204.988038 135.064752,204.988038 C135.06091,204.987374 135.056299,204.987374 135.052457,204.987374 C135.042468,204.987374 135.03171,204.987374 135.02172,204.987374 C135.016342,204.987374 135.009426,204.986709 135.004047,204.986709 C134.995594,204.986709 134.985605,204.986709 134.976384,204.986709 C134.970237,204.986709 134.964858,204.986709 134.958711,204.986045 C134.94949,204.986045 134.941806,204.986045 134.932585,204.986045 C134.926437,204.986045 134.921058,204.986045 134.914911,204.986045 C134.864964,204.98538 134.815786,204.984716 134.765839,204.983386 C134.762765,204.983386 134.758923,204.983386 134.75585,204.983386 C134.742787,204.983386 134.732029,204.983386 134.718966,204.982722 C134.717429,204.982722 134.715124,204.982722 134.713587,204.982722 C134.700524,204.982722 134.688229,204.982722 134.675935,204.982057 C134.673629,204.982057 134.671324,204.982057 134.669787,204.982057 C134.655956,204.982057 134.64443,204.982057 134.631367,204.981393 C134.62983,204.981393 134.62983,204.981393 134.628293,204.981393 C134.61523,204.981393 134.601399,204.981393 134.588335,204.980728 C134.586799,204.980728 134.58603,204.980728 134.584493,204.980728 C134.529936,204.980064 134.475379,204.979399 134.42159,204.97807 C134.419285,204.97807 134.417748,204.97807 134.415443,204.97807 C134.403148,204.97807 134.390085,204.977406 134.37779,204.977406 C134.377022,204.977406 134.373948,204.977406 134.372411,204.977406 C134.360885,204.977406 134.347822,204.976741 134.336296,204.976741 C134.333222,204.976741 134.330917,204.976741 134.327843,204.976741 C134.316317,204.976077 134.302486,204.976077 134.29096,204.976077 C134.288654,204.976077 134.289423,204.976077 134.287118,204.976077 C134.274055,204.975412 134.260992,204.975412 134.24716,204.975412 C134.246392,204.975412 134.246392,204.975412 134.244855,204.975412 C134.174929,204.974083 134.104235,204.972754 134.035078,204.971425 C134.020478,204.97076 134.006647,204.97076 133.992815,204.970096 L133.992047,204.970096 C120.506397,204.702951 109.591089,202.655502 107,200 L167,200 C164.360501,202.706007 153.07866,204.780037 139.241845,204.983386 L139.240308,204.983386 C139.186519,204.984051 139.131962,204.98538 139.078173,204.986045 C139.0751,204.986045 139.072026,204.986045 139.068952,204.986045 C139.058194,204.986045 139.0459,204.986045 139.035142,204.986709 C139.032068,204.986709 139.028226,204.986709 139.025153,204.986709 C139.015163,204.986709 139.002869,204.986709 138.992111,204.986709 C138.988269,204.987374 138.984427,204.987374 138.980585,204.987374 C138.969059,204.987374 138.956764,204.987374 138.945238,204.987374 C138.942933,204.987374 138.940627,204.987374 138.938322,204.987374 C138.926027,204.988038 138.916038,204.988038 138.903743,204.988038 C138.899133,204.988038 138.896059,204.988038 138.891449,204.988038 C138.839965,204.988703 138.787713,204.989367 138.736229,204.990032 C138.733156,204.990032 138.730082,204.990032 138.727008,204.990032 C138.713945,204.990696 138.700882,204.990696 138.688588,204.990696 C138.687819,204.990696 138.685514,204.990696 138.684746,204.990696 C138.672451,204.990696 138.661693,204.990696 138.650167,204.991361 C138.645557,204.991361 138.641715,204.991361 138.636336,204.991361 C138.625578,204.991361 138.615589,204.991361 138.604831,204.991361 C138.600989,204.991361 138.597915,204.991361 138.594073,204.991361 C138.583315,204.992026 138.572557,204.992026 138.5618,204.992026 C138.555652,204.992026 138.550273,204.992026 138.544126,204.992026 C138.534905,204.992026 138.525684,204.99269 138.516463,204.99269 C138.511853,204.99269 138.507242,204.99269 138.501863,204.99269 C138.491106,204.99269 138.481885,204.99269 138.471127,204.99269 C138.463443,204.99269 138.457295,204.993355 138.449611,204.993355 C138.44039,204.993355 138.428096,204.993355 138.418106,204.993355 C138.405812,204.993355 138.394286,204.993355 138.381991,204.994019 C138.375844,204.994019 138.369696,204.994019 138.362781,204.994019 C138.35356,204.994019 138.34357,204.994019 138.335118,204.994019 C138.328202,204.994019 138.323592,204.994019 138.317444,204.994019 C138.308223,204.994684 138.299002,204.994684 138.289781,204.994684 C138.282097,204.994684 138.273645,204.994684 138.265192,204.994684 C138.259045,204.994684 138.251361,204.994684 138.245213,204.994684 C138.237529,204.994684 138.229077,204.995348 138.221393,204.995348 C138.214477,204.995348 138.206793,204.995348 138.199109,204.995348 C138.190656,204.995348 138.181435,204.995348 138.172214,204.995348 C138.166067,204.995348 138.162225,204.995348 138.156078,204.995348 C138.146857,204.996013 138.137636,204.996013 138.128415,204.996013 C138.120731,204.996013 138.113046,204.996013 138.104594,204.996013 C138.094604,204.996013 138.083078,204.996013 138.073089,204.996013 C138.060794,204.996013 138.0485,204.996677 138.036205,204.996677 C138.033131,204.996677 138.028521,204.996677 138.024679,204.996677 C138.013921,204.996677 138.003932,204.996677 137.993174,204.996677 C137.984721,204.996677 137.977037,204.996677 137.969353,204.996677 C137.961669,204.996677 137.952448,204.997342 137.945532,204.997342 C137.938617,204.997342 137.930164,204.997342 137.923248,204.997342 C137.915564,204.997342 137.906343,204.997342 137.899428,204.997342 C137.892512,204.997342 137.885596,204.997342 137.87868,204.997342 C137.869459,204.997342 137.860238,204.997342 137.851018,204.997342 C137.844102,204.997342 137.837186,204.998006 137.829502,204.998006 C137.823355,204.998006 137.817207,204.998006 137.81106,204.998006 C137.802607,204.998006 137.79185,204.998006 137.782629,204.998006 C137.775713,204.998006 137.769566,204.998006 137.76265,204.998006 C137.754197,204.998006 137.745745,204.998006 137.738061,204.998006 C137.723461,204.998006 137.707324,204.998671 137.692724,204.998671 C137.688114,204.998671 137.681967,204.998671 137.677356,204.998671 C137.668135,204.998671 137.655841,204.998671 137.64662,204.998671 C137.638935,204.998671 137.63202,204.998671 137.624336,204.998671 C137.616652,204.998671 137.609736,204.998671 137.602052,204.998671 C137.593599,204.998671 137.58361,204.998671 137.574389,204.998671 C137.568241,204.998671 137.561326,204.998671 137.555178,204.998671 C137.547494,204.999335 137.540579,204.999335 137.532894,204.999335 C137.523674,204.999335 137.515221,204.999335 137.506,204.999335 C137.499084,204.999335 137.492937,204.999335 137.486021,204.999335 C137.476032,204.999335 137.467579,204.999335 137.458358,204.999335 C137.452211,204.999335 137.446064,204.999335 137.439916,204.999335 C137.431464,204.999335 137.42378,204.999335 137.415327,204.999335 C137.406875,204.999335 137.397654,204.999335 137.38997,204.999335 C137.360002,204.999335 137.330033,204.999335 137.300065,205 C137.295455,205 137.290844,205 137.286234,205 C137.273939,205 137.263181,205 137.250887,205 C137.247045,205 137.242434,205 137.239361,205 C137.228603,205 137.21554,205 137.205551,205 C137.199403,205 137.194793,205 137.188645,205 C137.178656,205 137.167898,205 137.157909,205 C137.15253,205 137.145614,205 137.140235,205 C137.132551,205 137.121025,205 137.112573,205 C137.105657,205 137.100278,205 137.093362,205 C137.082604,205 137.071078,205 137.061089,205 C137.056478,205 137.051868,205 137.047257,205 C137.031889,205 137.015752,205 137.000384,205" id="Fill-84" fill="#1C3D54"></path>
                <path d="M141,242 L132,242 L132,168.490292 C132,166.010796 134.014627,164 136.499615,164 C138.985373,164 141,166.010796 141,168.490292 L141,242" id="Fill-85" fill="#1C222B"></path>
                <path d="M139,165 L133,165 L133,101.197883 C133,99.4317369 134.343305,98 135.999635,98 C137.656695,98 139,99.4317369 139,101.197883 L139,165" id="Fill-86" fill="#1C222B"></path>
                <path d="M124,241 L111.888146,241 C111.888146,241 99,242.2499 99,251 L124,251 L124,241" id="Fill-87" fill="#241B14"></path>
                <path d="M136.632341,204.971302 C136.507736,204.980494 124.02193,206.031423 110.353153,202.006181 C100.483266,199.099275 101.732385,178.79306 103.342241,169.156225 C107.21651,169.00073 110.185475,168.136701 110.185475,167.0919 C110.185475,165.936031 106.561953,165 102.092353,165 C97.6227529,165 94,165.936031 94,167.0919 C94,168.049379 96.4897773,168.854428 99.8848582,169.102606 C98.6803506,176.708054 95.9690546,200.828865 109.211716,204.728486 C118.617029,207.499047 127.333942,208 132.415795,208 C135.133244,208 136.812324,207.856761 137,207.83991 L136.632341,204.971302" id="Fill-88" fill="#1C222B"></path>
                <path d="M137.367659,204.971302 C137.492264,204.980494 149.97807,206.031423 163.646847,202.006181 C173.517503,199.099275 172.267615,178.79306 170.658528,169.156225 C166.78349,169.00073 163.814525,168.136701 163.814525,167.0919 C163.814525,165.936031 167.438047,165 171.907647,165 C176.376478,165 180,165.936031 180,167.0919 C180,168.049379 177.510223,168.854428 174.115911,169.102606 C175.319649,176.708054 178.030945,200.828865 164.788284,204.728486 C155.382202,207.499047 146.666058,208 141.584205,208 C138.866756,208 137.187676,207.856761 137,207.83991 L137.367659,204.971302" id="Fill-89" fill="#1C222B"></path>
                <path d="M143,247.499199 C143,250.536692 140.538114,253 137.5004,253 C134.462687,253 132,250.536692 132,247.499199 C132,244.461706 134.462687,242 137.5004,242 C140.538114,242 143,244.461706 143,247.499199" id="Fill-90" fill="#1C222B"></path>
                <g id="Group" transform="translate(132.000000, 160.000000)" fill="#1C222B">
                    <path d="M10.7917857,5.39707143 C10.7917857,8.37728571 8.3765,10.7925714 5.39628571,10.7925714 C2.41607143,10.7925714 0,8.37728571 0,5.39707143 C0,2.41685714 2.41607143,0 5.39628571,0 C8.3765,0 10.7917857,2.41685714 10.7917857,5.39707143" id="Fill-91"></path>
                </g>
                <path d="M125,247.499199 C125,250.536692 122.537493,253 119.5,253 C116.462507,253 114,250.536692 114,247.499199 C114,244.461706 116.462507,242 119.5,242 C122.537493,242 125,244.461706 125,247.499199" id="Fill-92" fill="#1C222B"></path>
                <path d="M159,247.499199 C159,250.536692 156.537493,253 153.5,253 C150.463308,253 148,250.536692 148,247.499199 C148,244.461706 150.463308,242 153.5,242 C156.537493,242 159,244.461706 159,247.499199" id="Fill-93" fill="#1C222B"></path>
                <polygon id="Fill-94" fill="#1C222B" points="121 245 153 245 153 241 121 241"></polygon>
            </g>
        </g>
    </g>
</svg>