<?xml version="1.0" encoding="UTF-8" standalone="no"?>
<svg width="882px" height="240px" viewBox="0 0 882 240" version="1.1" xmlns="http://www.w3.org/2000/svg" xmlns:xlink="http://www.w3.org/1999/xlink">
    <!-- Generator: Sketch 50.2 (55047) - http://www.bohemiancoding.com/sketch -->
    <title>Artboard 1</title>
    <desc>Created with Sketch.</desc>
    <defs>
        <polygon id="path-1" points="0.8961 0.403 187.0481 0.403 187.0481 187.3293 0.8961 187.3293"></polygon>
        <polygon id="path-3" points="0.4473 0.7197 126.959 0.7197 126.959 182.9997 0.4473 182.9997"></polygon>
        <polygon id="path-5" points="0 0.5014 134.2565 0.5014 134.2565 181.3184 0 181.3184"></polygon>
    </defs>
    <g id="Artboard-1" stroke="none" stroke-width="1" fill="none" fill-rule="evenodd">
        <path d="M266.328,96.5616 L182.676,143.0346 L173.381,124.9616 L234.57,90.8806 C226.623,82.9656 217.206,79.0046 206.323,79.0046 C194.398,79.0046 184.636,83.0056 177.035,91.0096 C169.435,99.0146 165.635,109.3016 165.635,121.8636 C165.635,134.4296 169.43,144.7116 177.022,152.7176 C184.615,160.7206 194.363,164.7216 206.27,164.7216 C228.7,164.7216 242.59,151.8136 247.939,125.9956 L270.975,128.8336 C269.595,145.3586 262.927,159.0856 250.965,170.0146 C239,180.9476 224.154,186.4106 206.429,186.4106 C188.872,186.4106 173.896,180.3866 161.503,168.3356 C148.594,156.1186 142.14,140.6266 142.14,121.8636 C142.14,103.1046 148.594,87.5246 161.503,75.1306 C173.896,63.2546 188.872,57.3166 206.429,57.3166 C233.622,57.3166 253.588,70.3996 266.328,96.5616" id="Fill-1" fill="#FFFFFF"></path>
        <g id="Group-5" transform="translate(406.000000, -0.403000)">
            <mask id="mask-2" fill="white">
                <use xlink:href="#path-1"></use>
            </mask>
            <g id="Clip-4"></g>
            <path d="M170.0081,32.9333 L153.7421,50.4913 C141.6921,40.5103 132.6561,33.8823 126.6331,30.6103 C117.3381,25.6203 106.9211,23.1223 95.3921,23.1223 C75.5961,23.1223 59.1171,30.0533 45.9481,43.9063 C32.7811,57.7643 26.1981,74.4173 26.1981,93.8663 C26.1981,113.3183 32.7811,129.9723 45.9481,143.8263 C59.1171,157.6813 75.5961,164.6093 95.3921,164.6093 C113.1171,164.6093 128.2671,159.3603 140.8331,148.8603 C153.9111,137.6733 160.8831,123.1293 161.7461,105.2253 L98.7481,105.2253 L98.7481,82.5053 L187.0481,82.5053 L187.0481,97.9973 C187.0481,125.5373 177.1491,147.7423 157.3571,164.6093 C139.8001,179.7563 119.1451,187.3293 95.3921,187.3293 C69.5721,187.3293 47.3691,178.2073 28.7801,159.9613 C10.1911,141.7193 0.8961,119.6843 0.8961,93.8663 C0.8961,68.0473 10.1911,46.0173 28.7801,27.7693 C47.3691,9.5273 69.5721,0.4023 95.3921,0.4023 C110.5371,0.4023 123.7931,2.8543 135.1531,7.7603 C146.5131,12.6663 158.1321,21.0573 170.0081,32.9333" id="Fill-3" fill="#FFFFFF" mask="url(#mask-2)"></path>
        </g>
        <path d="M735.0511,183.8282 L712.3291,183.8282 L712.3291,114.1172 C712.3291,103.1042 708.1991,94.3252 699.9371,87.7822 C692.3621,81.9322 683.0671,79.0052 672.0531,79.0052 C659.8291,79.0052 649.9791,83.2242 642.4901,91.6552 C635.0031,100.0912 631.2601,110.3332 631.2601,122.3792 C631.2601,134.0862 635.0871,144.0672 642.7481,152.3292 C650.4051,160.5922 660.0871,164.7222 671.7941,164.7222 C683.6711,164.7222 694.0831,159.0432 703.0341,147.6822 L703.0341,174.5332 C692.3621,182.4522 681.1751,186.4102 669.4711,186.4102 C651.9141,186.4102 637.3671,180.0452 625.8371,167.3052 C614.3031,154.5692 608.5381,138.9932 608.5381,120.5722 C608.5381,102.5002 614.3481,87.4392 625.9661,75.3902 C637.5851,63.3452 653.1161,57.3162 672.5701,57.3162 C691.6751,57.3162 706.8641,62.6532 718.1391,73.3242 C729.4101,83.9992 735.0511,98.2842 735.0511,116.1822 L735.0511,183.8282 Z" id="Fill-6" fill="#FFFFFF"></path>
        <g id="Group-10" transform="translate(755.000000, 56.597000)">
            <mask id="mask-4" fill="white">
                <use xlink:href="#path-3"></use>
            </mask>
            <g id="Clip-9"></g>
            <path d="M23.1673,182.9997 L0.4473,182.9997 L0.4473,68.8807 C0.4473,48.5727 6.2963,32.1337 18.0043,19.5667 C29.7063,7.0057 44.6823,0.7197 62.9283,0.7197 C82.3773,0.7197 98.1273,7.4327 110.1763,20.8577 C121.3623,33.4257 126.9593,49.2597 126.9593,68.3647 C126.9593,85.4047 121.0203,99.9077 109.1433,111.8697 C97.2673,123.8347 83.3243,129.8127 67.3173,129.8127 C54.2343,129.8127 42.5313,126.8887 32.2043,121.0337 L32.2043,97.2807 C42.7013,104.5107 53.1173,108.1247 63.4433,108.1247 C75.6633,108.1247 85.5193,104.2117 93.0063,96.3787 C100.4943,88.5487 104.2373,78.2647 104.2373,65.5237 C104.2373,52.7887 100.3653,42.4177 92.6193,34.4127 C84.8743,26.4087 74.9743,22.4077 62.9283,22.4077 C51.3953,22.4077 42.1003,26.5377 35.0433,34.8007 C27.1253,43.9257 23.1673,56.6607 23.1673,73.0127 L23.1673,182.9997 Z" id="Fill-8" fill="#FFFFFF" mask="url(#mask-4)"></path>
        </g>
        <g id="Group-13" transform="translate(0.000000, 2.597000)">
            <mask id="mask-6" fill="white">
                <use xlink:href="#path-5"></use>
            </mask>
            <g id="Clip-12"></g>
            <path d="M91.1385,138.8874 C79.2635,151.9724 64.8045,158.5104 47.7635,158.5104 L34.5965,158.5104 L34.5965,158.5484 L24.2685,158.5344 L24.2685,23.2204 L38.9855,23.2204 C59.4665,23.2204 76.2485,29.5464 89.3315,42.1974 C102.4105,54.8484 108.9545,71.0744 108.9545,90.8664 C108.9545,109.8024 103.0155,125.8104 91.1385,138.8874 M109.2125,27.3524 C91.9985,9.4514 70.8275,0.5014 45.6995,0.5014 L-0.0005,0.5014 L-0.0005,181.2314 L16.0665,181.2314 L39.0985,181.3184 L39.0985,181.2314 L45.6995,181.2314 C70.8275,181.2314 91.9985,172.1954 109.2125,154.1214 C125.9065,136.5654 134.2565,115.4824 134.2565,90.8664 C134.2565,66.2524 125.9065,45.0824 109.2125,27.3524" id="Fill-11" fill="#FFFFFF" mask="url(#mask-6)"></path>
        </g>
        <path d="M411.869,53.7188 L341.18,183.3798 C340.417,184.7798 338.95,185.6518 337.355,185.6518 L329.154,185.6518 C327.206,185.6518 325.417,184.5758 324.503,182.8568 L255.896,53.8498 L280.985,53.8498 L333.849,154.0108 L373.94,73.8288 L355.663,73.8288 L333.849,115.8848 L321.791,93.5638 L341.664,53.7188 L411.869,53.7188 Z" id="Fill-14" fill="#FFFFFF"></path>
        <path d="M327.6707,67.792 C327.6707,76.628 320.5067,83.792 311.6707,83.792 C302.8347,83.792 295.6707,76.628 295.6707,67.792 C295.6707,58.955 302.8347,51.792 311.6707,51.792 C320.5067,51.792 327.6707,58.955 327.6707,67.792" id="Fill-16" fill="#FFFFFF"></path>
    </g>
</svg>